<mxfile host="65bd71144e">
    <diagram id="qWa90k2HV5OmSAu9-d1x" name="Page-1">
        <mxGraphModel dx="1917" dy="707" grid="1" gridSize="10" guides="1" tooltips="1" connect="1" arrows="1" fold="1" page="1" pageScale="1" pageWidth="850" pageHeight="1100" math="0" shadow="0">
            <root>
                <mxCell id="0"/>
                <mxCell id="1" parent="0"/>
                <mxCell id="2" value="BUCKET_LIST" style="swimlane;childLayout=stackLayout;horizontal=1;startSize=30;horizontalStack=0;rounded=1;fontSize=14;fontStyle=0;strokeWidth=2;resizeParent=0;resizeLast=1;shadow=0;dashed=0;align=center;" vertex="1" parent="1">
                    <mxGeometry x="280" y="485" width="400" height="130" as="geometry"/>
                </mxCell>
                <mxCell id="3" value="ID                                              INT                                                     PK&#xa;POST_NAME                           VARCHAR(100)&#xa;POST_DESCRIPTION             VARCHAR(1000)&#xa;POST_PRIORITY                     INTEGER&#xa;COMPLETED                           BOOL&#xa;CREATED_AT                          DATETIME CURRENT_TIMESTAMP&#xa;" style="align=left;strokeColor=none;fillColor=none;spacingLeft=4;fontSize=12;verticalAlign=top;resizable=0;rotatable=0;part=1;" vertex="1" parent="2">
                    <mxGeometry y="30" width="400" height="100" as="geometry"/>
                </mxCell>
                <mxCell id="4" value="BUCKET_LIST" style="swimlane;childLayout=stackLayout;horizontal=1;startSize=30;horizontalStack=0;rounded=1;fontSize=14;fontStyle=0;strokeWidth=2;resizeParent=0;resizeLast=1;shadow=0;dashed=0;align=center;" vertex="1" parent="1">
                    <mxGeometry x="280" y="660" width="400" height="130" as="geometry"/>
                </mxCell>
                <mxCell id="5" value="ID                                              INT                                                     PK&#xa;POST_NAME                           VARCHAR(100)&#xa;POST_DESCRIPTION             VARCHAR(1000)&#xa;POST_PRIORITY                     INTEGER&#xa;COMPLETED                           BOOL&#xa;CREATED_AT                          DATETIME CURRENT_TIMESTAMP&#xa;" style="align=left;strokeColor=none;fillColor=none;spacingLeft=4;fontSize=12;verticalAlign=top;resizable=0;rotatable=0;part=1;" vertex="1" parent="4">
                    <mxGeometry y="30" width="400" height="100" as="geometry"/>
                </mxCell>
                <mxCell id="6" value="BUCKET_LIST" style="swimlane;childLayout=stackLayout;horizontal=1;startSize=30;horizontalStack=0;rounded=1;fontSize=14;fontStyle=0;strokeWidth=2;resizeParent=0;resizeLast=1;shadow=0;dashed=0;align=center;" vertex="1" parent="1">
                    <mxGeometry x="280" y="830" width="400" height="130" as="geometry"/>
                </mxCell>
                <mxCell id="7" value="ID                                              INT                                                     PK&#xa;POST_NAME                           VARCHAR(100)&#xa;POST_DESCRIPTION             VARCHAR(1000)&#xa;POST_PRIORITY                     INTEGER&#xa;COMPLETED                           BOOL&#xa;CREATED_AT                          DATETIME CURRENT_TIMESTAMP&#xa;" style="align=left;strokeColor=none;fillColor=none;spacingLeft=4;fontSize=12;verticalAlign=top;resizable=0;rotatable=0;part=1;" vertex="1" parent="6">
                    <mxGeometry y="30" width="400" height="100" as="geometry"/>
                </mxCell>
                <mxCell id="8" value="Competition" style="swimlane;childLayout=stackLayout;horizontal=1;startSize=30;horizontalStack=0;rounded=1;fontSize=14;fontStyle=0;strokeWidth=2;resizeParent=0;resizeLast=1;shadow=0;dashed=0;align=center;" vertex="1" parent="1">
                    <mxGeometry x="-190" y="485" width="400" height="130" as="geometry"/>
                </mxCell>
                <mxCell id="9" value="ID                                              INT                                                     PK&#xa;POST_NAME                           VARCHAR(100)&#xa;POST_DESCRIPTION             VARCHAR(1000)&#xa;POST_PRIORITY                     INTEGER&#xa;COMPLETED                           BOOL&#xa;CREATED_AT                          DATETIME CURRENT_TIMESTAMP&#xa;" style="align=left;strokeColor=none;fillColor=none;spacingLeft=4;fontSize=12;verticalAlign=top;resizable=0;rotatable=0;part=1;" vertex="1" parent="8">
                    <mxGeometry y="30" width="400" height="100" as="geometry"/>
                </mxCell>
                <mxCell id="10" value="Course" style="swimlane;childLayout=stackLayout;horizontal=1;startSize=30;horizontalStack=0;rounded=1;fontSize=14;fontStyle=0;strokeWidth=2;resizeParent=0;resizeLast=1;shadow=0;dashed=0;align=center;" vertex="1" parent="1">
                    <mxGeometry x="-180" y="660" width="400" height="130" as="geometry"/>
                </mxCell>
                <mxCell id="11" value="ID                                              INT                                                     PK&#xa;POST_NAME                           VARCHAR(100)&#xa;POST_DESCRIPTION             VARCHAR(1000)&#xa;POST_PRIORITY                     INTEGER&#xa;COMPLETED                           BOOL&#xa;CREATED_AT                          DATETIME CURRENT_TIMESTAMP&#xa;" style="align=left;strokeColor=none;fillColor=none;spacingLeft=4;fontSize=12;verticalAlign=top;resizable=0;rotatable=0;part=1;" vertex="1" parent="10">
                    <mxGeometry y="30" width="400" height="100" as="geometry"/>
                </mxCell>
                <mxCell id="12" value="BUCKET_LIST" style="swimlane;childLayout=stackLayout;horizontal=1;startSize=30;horizontalStack=0;rounded=1;fontSize=14;fontStyle=0;strokeWidth=2;resizeParent=0;resizeLast=1;shadow=0;dashed=0;align=center;" vertex="1" parent="1">
                    <mxGeometry x="-180" y="840" width="400" height="130" as="geometry"/>
                </mxCell>
                <mxCell id="13" value="ID                                              INT                                                     PK&#xa;POST_NAME                           VARCHAR(100)&#xa;POST_DESCRIPTION             VARCHAR(1000)&#xa;POST_PRIORITY                     INTEGER&#xa;COMPLETED                           BOOL&#xa;CREATED_AT                          DATETIME CURRENT_TIMESTAMP&#xa;" style="align=left;strokeColor=none;fillColor=none;spacingLeft=4;fontSize=12;verticalAlign=top;resizable=0;rotatable=0;part=1;" vertex="1" parent="12">
                    <mxGeometry y="30" width="400" height="100" as="geometry"/>
                </mxCell>
            </root>
        </mxGraphModel>
    </diagram>
    <diagram id="bDtGGvF5Srtl9_9J28ia" name="Page-1">
        <mxGraphModel grid="1" page="1" gridSize="10" guides="1" tooltips="1" connect="1" arrows="1" fold="1" pageScale="1" pageWidth="850" pageHeight="1100" math="0" shadow="0">
            <root>
                <mxCell id="0"/>
                <mxCell id="1" parent="0"/>
                <mxCell id="2" value="CompetitionDate" style="ellipse;whiteSpace=wrap;html=1;align=center;" parent="1" vertex="1">
                    <mxGeometry x="-80" y="-290" width="100" height="40" as="geometry"/>
                </mxCell>
                <mxCell id="3" value="RegisterDate" style="ellipse;whiteSpace=wrap;html=1;align=center;" parent="1" vertex="1">
                    <mxGeometry x="55" y="-360" width="110" height="40" as="geometry"/>
                </mxCell>
                <mxCell id="4" value="&lt;u&gt;CompetitionId&lt;/u&gt;" style="ellipse;whiteSpace=wrap;html=1;align=center;" parent="1" vertex="1">
                    <mxGeometry x="200" y="-290" width="100" height="40" as="geometry"/>
                </mxCell>
                <mxCell id="5" value="Course" style="whiteSpace=wrap;html=1;align=center;" parent="1" vertex="1">
                    <mxGeometry x="-350" y="-20" width="100" height="40" as="geometry"/>
                </mxCell>
                <mxCell id="7" value="Competition" style="whiteSpace=wrap;html=1;align=center;" parent="1" vertex="1">
                    <mxGeometry x="60" y="-290" width="100" height="40" as="geometry"/>
                </mxCell>
                <mxCell id="8" value="Play" style="shape=rhombus;perimeter=rhombusPerimeter;whiteSpace=wrap;html=1;align=center;" parent="1" vertex="1">
                    <mxGeometry x="50" y="-29.97" width="120" height="60" as="geometry"/>
                </mxCell>
                <mxCell id="9" value="Course_name" style="ellipse;whiteSpace=wrap;html=1;align=center;" parent="1" vertex="1">
                    <mxGeometry x="-480" y="-20" width="100" height="40" as="geometry"/>
                </mxCell>
                <mxCell id="10" value="&lt;u&gt;Course_Id&lt;/u&gt;" style="ellipse;whiteSpace=wrap;html=1;align=center;" parent="1" vertex="1">
                    <mxGeometry x="-350" y="50" width="100" height="40" as="geometry"/>
                </mxCell>
                <mxCell id="14" value="" style="endArrow=none;html=1;rounded=0;" parent="1" source="4" target="7" edge="1">
                    <mxGeometry relative="1" as="geometry">
                        <mxPoint x="50" y="-270" as="sourcePoint"/>
                        <mxPoint x="210" y="-270" as="targetPoint"/>
                    </mxGeometry>
                </mxCell>
                <mxCell id="15" value="" style="endArrow=none;html=1;rounded=0;" parent="1" source="3" target="7" edge="1">
                    <mxGeometry relative="1" as="geometry">
                        <mxPoint x="50" y="-270" as="sourcePoint"/>
                        <mxPoint x="210" y="-270" as="targetPoint"/>
                    </mxGeometry>
                </mxCell>
                <mxCell id="16" value="" style="endArrow=none;html=1;rounded=0;" parent="1" source="2" target="7" edge="1">
                    <mxGeometry relative="1" as="geometry">
                        <mxPoint x="50" y="-270" as="sourcePoint"/>
                        <mxPoint x="210" y="-270" as="targetPoint"/>
                    </mxGeometry>
                </mxCell>
                <mxCell id="19" value="" style="shape=link;html=1;rounded=0;" parent="1" source="7" target="8" edge="1">
                    <mxGeometry relative="1" as="geometry">
                        <mxPoint x="-240" y="-40" as="sourcePoint"/>
                        <mxPoint x="-80" y="-40" as="targetPoint"/>
                    </mxGeometry>
                </mxCell>
                <mxCell id="20" value="N" style="resizable=0;html=1;align=right;verticalAlign=bottom;" parent="19" connectable="0" vertex="1">
                    <mxGeometry x="1" relative="1" as="geometry">
                        <mxPoint x="-10" as="offset"/>
                    </mxGeometry>
                </mxCell>
                <mxCell id="21" value="" style="endArrow=none;html=1;rounded=0;" parent="1" source="27" target="5" edge="1">
                    <mxGeometry relative="1" as="geometry">
                        <mxPoint x="-400" y="70" as="sourcePoint"/>
                        <mxPoint x="-450" y="70" as="targetPoint"/>
                    </mxGeometry>
                </mxCell>
                <mxCell id="25" value="" style="endArrow=none;html=1;rounded=0;" parent="1" source="9" target="5" edge="1">
                    <mxGeometry relative="1" as="geometry">
                        <mxPoint x="-610" y="70" as="sourcePoint"/>
                        <mxPoint x="-450" y="70" as="targetPoint"/>
                    </mxGeometry>
                </mxCell>
                <mxCell id="26" value="" style="endArrow=none;html=1;rounded=0;" parent="1" source="10" target="5" edge="1">
                    <mxGeometry relative="1" as="geometry">
                        <mxPoint x="-610" y="70" as="sourcePoint"/>
                        <mxPoint x="-450" y="70" as="targetPoint"/>
                    </mxGeometry>
                </mxCell>
                <mxCell id="27" value="Par" style="ellipse;whiteSpace=wrap;html=1;align=center;" vertex="1" parent="1">
                    <mxGeometry x="-350" y="-90" width="100" height="40" as="geometry"/>
                </mxCell>
                <mxCell id="28" value="User" style="whiteSpace=wrap;html=1;align=center;" vertex="1" parent="1">
                    <mxGeometry x="485" y="-20" width="100" height="40" as="geometry"/>
                </mxCell>
                <mxCell id="29" value="&lt;u&gt;UserId&lt;/u&gt;" style="ellipse;whiteSpace=wrap;html=1;align=center;" vertex="1" parent="1">
                    <mxGeometry x="360" y="-60" width="100" height="40" as="geometry"/>
                </mxCell>
                <mxCell id="30" value="DisplayName" style="ellipse;whiteSpace=wrap;html=1;align=center;" vertex="1" parent="1">
                    <mxGeometry x="485" y="50" width="100" height="40" as="geometry"/>
                </mxCell>
                <mxCell id="35" value="" style="endArrow=none;html=1;rounded=0;" edge="1" parent="1" source="28" target="30">
                    <mxGeometry relative="1" as="geometry">
                        <mxPoint x="445" y="390" as="sourcePoint"/>
                        <mxPoint x="605" y="390" as="targetPoint"/>
                    </mxGeometry>
                </mxCell>
                <mxCell id="38" value="" style="endArrow=none;html=1;rounded=0;" edge="1" parent="1" source="29" target="28">
                    <mxGeometry relative="1" as="geometry">
                        <mxPoint x="75" y="370" as="sourcePoint"/>
                        <mxPoint x="235" y="370" as="targetPoint"/>
                    </mxGeometry>
                </mxCell>
                <mxCell id="39" value="" style="endArrow=none;html=1;rounded=0;" edge="1" parent="1" source="42" target="28">
                    <mxGeometry relative="1" as="geometry">
                        <mxPoint x="467.7869139216507" y="-52.19772349871073" as="sourcePoint"/>
                        <mxPoint x="230" y="250" as="targetPoint"/>
                    </mxGeometry>
                </mxCell>
                <mxCell id="40" value="Email" style="ellipse;whiteSpace=wrap;html=1;align=center;" vertex="1" parent="1">
                    <mxGeometry x="350" y="40" width="100" height="40" as="geometry"/>
                </mxCell>
                <mxCell id="41" value="" style="endArrow=none;html=1;rounded=0;" edge="1" parent="1" source="28" target="40">
                    <mxGeometry relative="1" as="geometry">
                        <mxPoint x="270" y="280" as="sourcePoint"/>
                        <mxPoint x="235.9700306805671" y="420.0197238748965" as="targetPoint"/>
                    </mxGeometry>
                </mxCell>
                <mxCell id="42" value="PDGA_NR" style="ellipse;whiteSpace=wrap;html=1;align=center;" vertex="1" parent="1">
                    <mxGeometry x="600" y="20" width="100" height="40" as="geometry"/>
                </mxCell>
                <mxCell id="54" value="Friends" style="ellipse;whiteSpace=wrap;html=1;align=center;" vertex="1" parent="1">
                    <mxGeometry x="485" y="-160" width="100" height="40" as="geometry"/>
                </mxCell>
                <mxCell id="55" value="" style="endArrow=none;html=1;rounded=0;" edge="1" parent="1" source="28" target="54">
                    <mxGeometry relative="1" as="geometry">
                        <mxPoint x="660" y="-120" as="sourcePoint"/>
                        <mxPoint x="716" y="250" as="targetPoint"/>
                    </mxGeometry>
                </mxCell>
                <mxCell id="56" value="VisningsBild" style="ellipse;whiteSpace=wrap;html=1;align=center;" vertex="1" parent="1">
                    <mxGeometry x="670" y="-50" width="100" height="40" as="geometry"/>
                </mxCell>
                <mxCell id="57" value="" style="endArrow=none;html=1;rounded=0;" edge="1" parent="1" source="28" target="56">
                    <mxGeometry relative="1" as="geometry">
                        <mxPoint x="550" y="-80" as="sourcePoint"/>
                        <mxPoint x="681" y="180" as="targetPoint"/>
                    </mxGeometry>
                </mxCell>
                <mxCell id="58" value="Password" style="ellipse;whiteSpace=wrap;html=1;align=center;" vertex="1" parent="1">
                    <mxGeometry x="570" y="-100" width="100" height="40" as="geometry"/>
                </mxCell>
                <mxCell id="59" value="" style="endArrow=none;html=1;rounded=0;" edge="1" parent="1" source="28" target="58">
                    <mxGeometry relative="1" as="geometry">
                        <mxPoint x="540" y="-70" as="sourcePoint"/>
                        <mxPoint x="671" y="190" as="targetPoint"/>
                    </mxGeometry>
                </mxCell>
                <mxCell id="60" value="" style="endArrow=none;html=1;rounded=0;" edge="1" parent="1" source="28" target="8">
                    <mxGeometry relative="1" as="geometry">
                        <mxPoint x="334" y="150" as="sourcePoint"/>
                        <mxPoint x="311" y="110" as="targetPoint"/>
                    </mxGeometry>
                </mxCell>
                <mxCell id="65" value="" style="endArrow=none;html=1;rounded=0;" edge="1" parent="1" source="5" target="8">
                    <mxGeometry relative="1" as="geometry">
                        <mxPoint x="-198" y="151" as="sourcePoint"/>
                        <mxPoint x="-159" y="110" as="targetPoint"/>
                    </mxGeometry>
                </mxCell>
                <mxCell id="66" value="&lt;u&gt;CompetitionId&lt;/u&gt;" style="ellipse;whiteSpace=wrap;html=1;align=center;" vertex="1" parent="1">
                    <mxGeometry x="-50" y="-69.97" width="100" height="40" as="geometry"/>
                </mxCell>
                <mxCell id="67" value="&lt;u&gt;Course_Id&lt;/u&gt;" style="ellipse;whiteSpace=wrap;html=1;align=center;" vertex="1" parent="1">
                    <mxGeometry x="-50" y="30.03" width="100" height="40" as="geometry"/>
                </mxCell>
                <mxCell id="68" value="&lt;u&gt;UserId&lt;/u&gt;" style="ellipse;whiteSpace=wrap;html=1;align=center;" vertex="1" parent="1">
                    <mxGeometry x="170" y="-69.97" width="100" height="40" as="geometry"/>
                </mxCell>
                <mxCell id="69" value="Par" style="ellipse;whiteSpace=wrap;html=1;align=center;" vertex="1" parent="1">
                    <mxGeometry x="170" y="30.03" width="100" height="40" as="geometry"/>
                </mxCell>
                <mxCell id="70" value="Group_nr" style="ellipse;whiteSpace=wrap;html=1;align=center;" vertex="1" parent="1">
                    <mxGeometry x="60" y="60" width="100" height="40" as="geometry"/>
                </mxCell>
            </root>
        </mxGraphModel>
    </diagram>
</mxfile>